# xmcd
#
# Track frame offsets: 
#        150
#        15510
#        33925
#        44550
#        64872
#        77935
#        106537
#        126000
#        147582
#        166825
#        180482
#        192032
#        203152
#        227227
#        243642
#        257395
#        276455
#
# Disc length: 3909 seconds
#
# Revision: 4
# Processed by: cddbd v1.5.2PL0 Copyright (c) Steve Scherf et al.
# Submitted via: ExactAudioCopy v0.95b1
#
DISCID=e80f4311
DTITLE=Various Artist - The Best Folk Volume 2
DYEAR=1989
DGENRE=Folk
TTITLE0=Dubliners - Seven Drunken Nights
TTITLE1=Na Casaidigh - Fanny Power
TTITLE2=Freddie White - Buttermilk Sky
TTITLE3=The Bards - The Fox Hunt
TTITLE4=Johnny McEvoy - Rose of Mooncoin
TTITLE5=Paddy Reilly - Town I Love So Well
TTITLE6=Morrisseys - Sweet Forget Me Nots
TTITLE7=Dublin City Ramblers - Rare Oul Times
TTITLE8=Paddy Reilly - My Lovely Rose of Clare
TTITLE9=The Dubliners - Marino Waltz
TTITLE10=Luke Kelly - Peat Bog Soldiers
TTITLE11=Johnny McEvoy - Where My Eileen Is Waiting
TTITLE12=Paddy Reilly - Raglan Road
TTITLE13=Morrisseys - I Will Never Marry
TTITLE14=The Dubliners - Dirty Old Town
TTITLE15=Johnny McEvoy - Three Score and Ten
TTITLE16=Dublin City Ramblers - Punch and Judy Man
EXTD=
EXTT0=
EXTT1=
EXTT2=
EXTT3=
EXTT4=
EXTT5=
EXTT6=
EXTT7=
EXTT8=
EXTT9=
EXTT10=
EXTT11=
EXTT12=
EXTT13=
EXTT14=
EXTT15=
EXTT16=
PLAYORDER=
